<?xml version="1.0" encoding="utf-8"?>
<!-- Generator: Adobe Illustrator 16.0.0, SVG Export Plug-In . SVG Version: 6.00 Build 0)  -->
<!DOCTYPE svg PUBLIC "-//W3C//DTD SVG 1.1//EN" "http://www.w3.org/Graphics/SVG/1.1/DTD/svg11.dtd">
<svg version="1.1" id="圖層_1" xmlns="http://www.w3.org/2000/svg" xmlns:xlink="http://www.w3.org/1999/xlink" x="0px" y="0px"
	 width="100px" height="100px" viewBox="0 0 100 100" enable-background="new 0 0 100 100" xml:space="preserve">
<path fill-rule="evenodd" clip-rule="evenodd" fill="#040000" d="M23.678,43.429l68.624-20.13v-8.094H100v69.59h-7.698v-7.724
	L64.153,69.19l-1.946,7.516c-0.583,2.25-2.03,4.056-3.894,5.153c-1.854,1.094-4.135,1.484-6.386,0.899l-14.747-3.815
	c-2.246-0.577-4.05-2.024-5.149-3.887c-1.098-1.865-1.482-4.142-0.899-6.387l2.1-8.136l-9.555-2.679V43.429L23.678,43.429z
	 M33.32,51.749l52.28-6.381V32.394l-52.28,13.58V51.749L33.32,51.749z M57.168,67.234l-16.956-4.746l-2.067,7.998
	c-0.079,0.312-0.022,0.638,0.136,0.901c0.149,0.261,0.405,0.465,0.717,0.54L53.75,75.74c0.31,0.087,0.632,0.022,0.898-0.127
	c0.258-0.156,0.462-0.407,0.547-0.724L57.168,67.234L57.168,67.234z M0,39.658h7.376v3.787h11.126v14.651H7.376v3.61H0V39.658z"/>
</svg>
