<?xml version="1.0" encoding="utf-8"?>
<!-- Generator: Adobe Illustrator 16.0.0, SVG Export Plug-In . SVG Version: 6.00 Build 0)  -->
<!DOCTYPE svg PUBLIC "-//W3C//DTD SVG 1.1//EN" "http://www.w3.org/Graphics/SVG/1.1/DTD/svg11.dtd">
<svg version="1.1" id="圖層_1" xmlns="http://www.w3.org/2000/svg" xmlns:xlink="http://www.w3.org/1999/xlink" x="0px" y="0px"
	 width="100px" height="100px" viewBox="0 0 100 100" enable-background="new 0 0 100 100" xml:space="preserve">
<g>
	<path fill="#040000" d="M73.834,61.733c-5.773,0-10.47,4.641-10.47,10.461c0,5.772,4.696,10.441,10.47,10.441
		c5.772,0,10.438-4.669,10.438-10.441C84.272,66.374,79.606,61.733,73.834,61.733z M73.837,77.794c-3.129,0-5.625-2.51-5.625-5.603
		c0-3.151,2.496-5.641,5.625-5.641c3.126,0,5.657,2.489,5.657,5.641C79.494,75.284,76.963,77.794,73.837,77.794z"/>
	<path fill="#040000" d="M97.226,51.292c0-3.443-0.229-6.536-0.614-8.45c-1.365-6.933-10.811-26.081-10.811-26.081h-4.855H4.715
		v29.287l-1.058,0.159L3.079,64.132H0l1.413,7.79h1.36h1.941h4.754h2.174c0-7.302,5.889-13.188,13.206-13.188
		c7.274,0,13.169,5.887,13.169,13.188h22.488c0-7.302,5.886-13.188,13.165-13.188c7.294,0,13.216,5.887,13.216,13.188h5.356h4.368
		h2.424L100,50.95L97.226,51.292z M31.778,39.605H13.071V22.928h18.707V39.605z M57.68,39.605H38.976V22.928H57.68V39.605z
		 M63.417,44.361V22.928h16.102c0,0,6.624,13.028,7.527,21.434H63.417z"/>
	<path fill="#040000" d="M24.811,62.309c-5.828,0-10.488,4.716-10.488,10.461c0,5.801,4.66,10.47,10.488,10.47
		c5.745,0,10.433-4.669,10.433-10.47C35.243,67.024,30.556,62.309,24.811,62.309z M24.808,78.436c-3.156,0-5.666-2.531-5.666-5.666
		c0-3.109,2.51-5.657,5.666-5.657c3.085,0,5.616,2.548,5.616,5.657C30.424,75.904,27.893,78.436,24.808,78.436z"/>
</g>
</svg>
