<?xml version="1.0" encoding="utf-8"?>
<!-- Generator: Adobe Illustrator 16.0.0, SVG Export Plug-In . SVG Version: 6.00 Build 0)  -->
<!DOCTYPE svg PUBLIC "-//W3C//DTD SVG 1.1//EN" "http://www.w3.org/Graphics/SVG/1.1/DTD/svg11.dtd">
<svg version="1.1" id="圖層_1" xmlns="http://www.w3.org/2000/svg" xmlns:xlink="http://www.w3.org/1999/xlink" x="0px" y="0px"
	 width="100px" height="100px" viewBox="0 0 100 100" enable-background="new 0 0 100 100" xml:space="preserve">
<g>
	<path fill="#C61A56" d="M24.691,29.237c4.232,0,7.662-3.43,7.662-7.662c0-4.235-3.43-7.662-7.662-7.662s-7.662,3.427-7.662,7.662
		C17.029,25.807,20.459,29.237,24.691,29.237z"/>
	<g>
		<polygon fill="none" points="51.782,31.982 46.878,22.676 31.03,45.429 22.541,39.711 31.03,45.677 46.878,22.8 51.782,32.046 
			57.445,30.163 62.565,46.791 62.568,46.791 57.445,30.131 		"/>
		<polygon fill="none" points="31.03,45.429 46.878,22.676 51.782,31.982 57.445,30.131 62.568,46.791 65.165,46.791 65.165,10.524 
			9.775,10.524 9.775,52.881 9.962,52.881 22.541,39.711 		"/>
		<path fill="#C61A56" d="M0,0.75v71.68h18.232V56.139v-3.258v-1.473c0-2.549,2.068-4.617,4.617-4.617h39.716l-5.12-16.628
			l-5.663,1.884L46.878,22.8L31.03,45.677l-8.489-5.966L9.962,52.881H9.775V10.524h55.39v36.267h9.774V0.75H0z"/>
	</g>
	<path fill="#C51A57" d="M95.383,51.908H30.043c-2.549,0-4.617,2.068-4.617,4.617v38.107c0,2.549,2.068,4.617,4.617,4.617h65.339
		c2.549,0,4.617-2.068,4.617-4.617V56.525C100,53.977,97.932,51.908,95.383,51.908z M52.605,91.182V59.98l27.024,15.6L52.605,91.182
		z"/>
</g>
</svg>
