<?xml version="1.0" encoding="utf-8"?>
<!-- Generator: Adobe Illustrator 16.0.0, SVG Export Plug-In . SVG Version: 6.00 Build 0)  -->
<!DOCTYPE svg PUBLIC "-//W3C//DTD SVG 1.1//EN" "http://www.w3.org/Graphics/SVG/1.1/DTD/svg11.dtd">
<svg version="1.1" id="圖層_1" xmlns="http://www.w3.org/2000/svg" xmlns:xlink="http://www.w3.org/1999/xlink" x="0px" y="0px"
	 width="100px" height="100px" viewBox="0 0 100 100" enable-background="new 0 0 100 100" xml:space="preserve">
<path fill="#070001" d="M62.934,100V82.873H37.084V100H62.934z M70.865,45.778c0-7.134-5.806-12.938-12.942-12.938H41.976
	c-7.139,0-12.95,5.804-12.95,12.938V77.89h41.839V45.778z M56.137,5.99V4.458c0-2.463,1.997-4.458,4.46-4.458h12.322
	c2.463,0,4.458,1.995,4.458,4.458v9.204c-1.541-1.306-3.211-2.462-4.983-3.465V4.984H61.123v1.379
	c-1.52-0.22-3.063-0.373-4.643-0.373H56.137z M22.636,13.61V4.458C22.636,1.995,24.631,0,27.094,0h12.325
	c2.463,0,4.458,1.995,4.458,4.458V5.99h-0.463c-1.539,0-3.04,0.148-4.521,0.355V4.984H27.625v5.164
	C25.85,11.149,24.182,12.305,22.636,13.61z M83.871,57.752L83.86,36.498c0-15.066-12.313-27.276-27.38-27.276H43.414
	c-15.066,0-27.281,12.21-27.281,27.276v21.254H7.379v20.281c0,3.285,1.593,4.84,4.842,4.84h3.912v7.748
	c0,5.177,4.202,9.379,9.379,9.379h6.586V82.873h-8.055V45.778c0-9.88,8.046-17.924,17.933-17.924h15.947
	c9.887,0,17.927,8.044,17.927,17.924v37.095h-7.935V100h6.591c5.177,0,9.374-4.202,9.374-9.379l-0.002-7.748h3.898
	c3.245,0,4.845-1.555,4.845-4.84V57.752H83.871z M55.928,21.104H44.086c-1.377,0-2.487-1.119-2.487-2.494
	c0-1.375,1.11-2.492,2.487-2.492h11.842c1.377,0,2.494,1.117,2.494,2.492C58.422,19.985,57.305,21.104,55.928,21.104z"/>
</svg>
