<?xml version="1.0" encoding="utf-8"?>
<!-- Generator: Adobe Illustrator 16.0.0, SVG Export Plug-In . SVG Version: 6.00 Build 0)  -->
<!DOCTYPE svg PUBLIC "-//W3C//DTD SVG 1.1//EN" "http://www.w3.org/Graphics/SVG/1.1/DTD/svg11.dtd">
<svg version="1.1" id="圖層_1" xmlns="http://www.w3.org/2000/svg" xmlns:xlink="http://www.w3.org/1999/xlink" x="0px" y="0px"
	 width="100px" height="100px" viewBox="0 0 100 100" enable-background="new 0 0 100 100" xml:space="preserve">
<g>
	<path d="M50,7.364c8.287,0,15.892,5.96,18.214,13.902h7.569C73.316,9.082,62.41,0,50,0C37.589,0,26.684,9.082,24.217,21.266h7.569
		C34.107,13.324,41.713,7.364,50,7.364z"/>
	<path d="M8.127,24.648L14.107,100h15.309h0.005l0.203-21.646c-10.794,0-10.994-11.322-10.994-11.322L18.427,37.64h6.141v28.909
		c0,1.683,2.212,3.05,3.899,3.05c1.683,0,3.896-1.367,3.896-3.05V37.64h5.196v28.907c0,1.685,2.213,3.052,3.897,3.052
		s3.897-1.367,3.897-3.052V37.64h5.197v29.518c0,0,0,10.994-10.394,10.994V100h28.582V89.145c0,0-6.101-10.992-6.101-26.871
		c0-28.092,16.493-28.092,16.493-28.092V100h6.76l5.981-75.352H8.127z"/>
</g>
</svg>
