<?xml version="1.0" encoding="utf-8"?>
<!-- Generator: Adobe Illustrator 16.0.0, SVG Export Plug-In . SVG Version: 6.00 Build 0)  -->
<!DOCTYPE svg PUBLIC "-//W3C//DTD SVG 1.1//EN" "http://www.w3.org/Graphics/SVG/1.1/DTD/svg11.dtd">
<svg version="1.1" id="圖層_1" xmlns="http://www.w3.org/2000/svg" xmlns:xlink="http://www.w3.org/1999/xlink" x="0px" y="0px"
	 width="100px" height="100px" viewBox="0 0 100 100" enable-background="new 0 0 100 100" xml:space="preserve">
<path fill="#717071" d="M98.058,45.244L58.422,5.609c-2.635-2.59-6.901-2.59-9.536,0c-2.59,2.684-2.59,6.996,0.049,9.585
	l28.034,28.035H6.71c-3.741,0-6.71,3.018-6.71,6.808c0,3.687,2.969,6.709,6.71,6.709h70.259L48.933,84.83
	c-2.639,2.635-2.639,6.853-0.049,9.442c2.635,2.733,6.903,2.733,9.538,0.094l39.542-39.443l0.094-0.094v-0.098
	C100.647,52.146,100.647,47.83,98.058,45.244z"/>
</svg>
