<?xml version="1.0" encoding="utf-8"?>
<!-- Generator: Adobe Illustrator 16.0.0, SVG Export Plug-In . SVG Version: 6.00 Build 0)  -->
<!DOCTYPE svg PUBLIC "-//W3C//DTD SVG 1.1//EN" "http://www.w3.org/Graphics/SVG/1.1/DTD/svg11.dtd">
<svg version="1.1" id="圖層_1" xmlns="http://www.w3.org/2000/svg" xmlns:xlink="http://www.w3.org/1999/xlink" x="0px" y="0px"
	 width="100px" height="100px" viewBox="0 0 100 100" enable-background="new 0 0 100 100" xml:space="preserve">
<path fill="#717071" d="M93.29,43.254H23.031L51.067,15.17c2.639-2.635,2.639-6.853,0.049-9.442
	c-2.635-2.733-6.903-2.733-9.538-0.094L2.036,45.078l-0.094,0.094v0.098c-2.59,2.586-2.59,6.902,0,9.487l39.636,39.636
	c2.635,2.59,6.901,2.59,9.536,0c2.59-2.685,2.59-6.996-0.05-9.586L23.031,56.771H93.29c3.74,0,6.71-3.019,6.71-6.808
	C100,46.277,97.03,43.254,93.29,43.254z"/>
</svg>
