<?xml version="1.0" encoding="utf-8"?>
<!-- Generator: Adobe Illustrator 16.0.0, SVG Export Plug-In . SVG Version: 6.00 Build 0)  -->
<!DOCTYPE svg PUBLIC "-//W3C//DTD SVG 1.1//EN" "http://www.w3.org/Graphics/SVG/1.1/DTD/svg11.dtd">
<svg version="1.1" id="圖層_1" xmlns="http://www.w3.org/2000/svg" xmlns:xlink="http://www.w3.org/1999/xlink" x="0px" y="0px"
	 width="100px" height="100px" viewBox="0 0 100 100" enable-background="new 0 0 100 100" xml:space="preserve">
<path fill="#717071" d="M56.746,23.031L56.746,23.031L84.83,51.066c2.635,2.64,6.853,2.64,9.443,0.049
	c2.732-2.635,2.732-6.902,0.093-9.537L54.922,2.036l-0.093-0.093H54.73c-2.586-2.591-6.901-2.591-9.487,0L5.607,41.579
	c-2.591,2.635-2.591,6.902,0,9.537c2.684,2.591,6.995,2.591,9.586-0.049l28.034-28.035V93.29c0,3.741,3.019,6.71,6.809,6.71
	c3.687,0,6.71-2.969,6.71-6.71V23.031L56.746,23.031z"/>
</svg>
